PathFileType	4	(X/Y/Z)	Patient4_TMGait_0pt7_01_left_10.trc.trc
DataRate	CameraRate	NumFrames	NumMarkers	Units	OrigDataRate	OrigDataStartFrame	OrigNumFrames
82.840236686391	82.840236686391	5	33	mm	82.840236686391	124	       141
Frame#	Time	Sacral			L.Shoulder			Chest			R.Shoulder			Neck			R.ASIS			L.ASIS			R.Thigh.Superior			R.Thigh.Lateral			R.Thigh.Inferior			R.Patella			L.Thigh.Superior			L.Thigh.Lateral			L.Thigh.Inferior			L.Patella			L.Shank.Superior			L.Shank.Lateral			L.Shank.Inferior			R.Shank.Superior			R.Shank.Lateral			R.Shank.Inferior			R.Heel			R.Midfoot.Superior			R.Midfoot.Lateral			R.Toe			L.Heel			L.Midfoot.Lateral			L.Midfoot.Superior			L.Toe			L.Elbow			L.Wrist			R.Elbow			R.Wrist			
		X1	Y1	Z1	X2	Y2	Z2	X3	Y3	Z3	X4	Y4	Z4	X5	Y5	Z5	X6	Y6	Z6	X7	Y7	Z7	X8	Y8	Z8	X9	Y9	Z9	X10	Y10	Z10	X11	Y11	Z11	X12	Y12	Z12	X13	Y13	Z13	X14	Y14	Z14	X15	Y15	Z15	X16	Y16	Z16	X17	Y17	Z17	X18	Y18	Z18	X19	Y19	Z19	X20	Y20	Z20	X21	Y21	Z21	X22	Y22	Z22	X23	Y23	Z23	X24	Y24	Z24	X25	Y25	Z25	X26	Y26	Z26	X27	Y27	Z27	X28	Y28	Z28	X29	Y29	Z29	X30	Y30	Z30	X31	Y31	Z31	X32	Y32	Z32	X33	Y33	Z33	

124	12.914785714286	817.480666434746	990.730715137275	495.419741597133	983.036801359266	1413.919594446681	299.951858858387	1098.182349721716	1344.077834405914	452.170917438645	1031.917243886370	1425.526045193644	628.711719779064	1002.160634776162	1476.318909277643	454.196291009634	1044.027353648526	931.345376250165	609.664482052355	1026.924983114516	938.715111985385	333.286486388155	1041.842720078746	717.302426674082	586.008619154489	934.006110371798	623.640457396421	643.327536801026	995.888094067576	557.401053804047	565.236929334116	973.409184792403	469.657400120108	567.501156593548	1107.049456028608	766.558279365901	367.011608575015	1064.863231454262	634.667638122939	287.807852112142	1172.353904890496	582.605340551181	347.463969536151	1199.085947390283	515.436988036649	345.633728934429	1183.328017040568	440.972704510346	334.836262237935	1116.031367702579	311.042737220247	287.099283665553	1204.120576062500	212.890252178062	340.780010497412	930.072673710663	386.619620225743	573.580258251723	839.467445953770	297.342043997399	634.239134204174	862.511804014852	197.308229669431	569.656248633837	705.146979942872	43.331586470176	536.872745335944	877.487552752545	96.201801961116	575.188911920502	787.030572207209	36.979358889071	612.711157246540	995.782407530390	40.098239593815	605.926219919290	1119.447179908948	39.886911303965	382.433725781826	1191.065173022161	41.307304295676	299.936647129419	1266.282473542796	112.991347351718	319.869734978710	1397.860848731441	74.856885697753	290.101117414028	811.155390144306	1107.792173098177	217.814111016187	731.190295115141	862.062121936951	237.528170026012	1220.636429233279	1155.045085046907	735.054508159235	1393.840217713306	1296.800285550478	622.866988318343	
125	12.926857142857	819.314182147399	988.632214229024	492.898478541292	982.846956230568	1412.212889150703	296.844602236244	1097.987780560803	1343.385925261995	449.622025684010	1030.582843713038	1424.873153953483	625.858716752794	1001.254148422910	1475.090608183973	450.987866118517	1045.335549894487	929.789476550141	607.631748890441	1029.120746799019	937.403608185808	331.393424888804	1042.685821042413	715.327363300225	584.142940776962	934.281501350751	621.984569677068	641.193475995287	996.116500297098	555.284973261284	563.261717352261	972.950011853069	466.663831875913	565.528514002478	1109.665862151561	764.693010876688	365.725163342210	1066.009886589122	632.843637219287	287.604416020901	1173.265524076303	580.490568987629	347.365955939515	1198.388936542631	512.221794649546	346.511954832174	1181.863498156935	437.432527369063	335.565264497820	1112.577439484053	308.687795838677	287.396909216069	1197.977614198355	209.059769954208	342.394224691042	927.776582381184	384.546330408555	571.753664762585	835.579558814837	297.095417945893	632.868501759562	856.423980291317	196.507764628108	568.625447436444	696.655742303455	44.159998080843	536.882433629861	869.257346529065	96.180750633723	574.898537441547	778.593797544356	37.335921657010	612.673786340123	987.386135594335	39.749174780874	606.054673343685	1108.860092827231	38.727767496879	384.082844066553	1180.144547037337	38.918110415124	301.134604909277	1257.312404784087	108.299909881141	321.646884830630	1388.005834178915	66.881500248349	290.885863023496	810.284095745474	1106.615650666193	215.786302800772	728.878352370076	861.361013461873	236.081572939697	1218.683262987252	1154.352246610751	734.753009429779	1384.488277234373	1302.079755430930	620.021662482355	
126	12.938928571429	821.030000206373	986.788351987966	490.320904911435	982.761761571611	1410.661217765754	293.655684632220	1097.884391201796	1342.820039212518	447.015735601794	1029.414044169000	1424.414528539932	622.960018035728	1000.540093490874	1474.079349845615	447.658524196463	1046.555975395150	928.403297790128	605.497481317013	1031.202782611247	936.449843078168	329.446501473479	1043.765441943023	713.568932009187	582.130186454251	935.012377510671	620.353348609513	638.852697999404	997.019277405983	553.283241986852	561.123950832088	973.344568312657	463.556099718723	563.558105211494	1112.297169302351	763.301081034379	364.419874432644	1067.452068923037	631.693492052681	286.985606379923	1174.203562783947	578.873777638009	347.161760956416	1197.817726489628	509.635020745148	347.157436278975	1180.620699879698	434.528097727139	336.039101335892	1109.647021735276	306.980050174200	286.987620866902	1192.113308506712	205.899517045669	343.570934580340	926.049015681948	382.511991205590	569.851532511261	832.082618046088	297.146712715402	631.385446824126	850.633872526000	195.971304776960	567.593693802508	688.198599102480	45.622456976656	536.933859034864	861.216023158296	96.247157884912	574.629985840300	770.205977230990	38.025924807900	612.648513936345	979.025847540658	39.377540568700	606.170816010855	1098.544810660886	37.962354814070	385.032448248629	1169.664299940258	37.132313182154	301.800903523838	1248.467687473107	104.516523569693	323.004610287679	1378.420635304301	60.292005511793	291.564455885426	810.223277543354	1105.001078505512	213.647358104321	728.053395808551	859.973202678512	234.169142843969	1215.921514057808	1152.973425762500	734.810947316048	1374.966724303346	1305.686112307541	617.523321723133	
127	12.951000000000	822.536791229682	985.305274337679	487.693999858473	982.773353913260	1409.343181536234	290.431850006549	1097.856992258071	1342.431063415926	444.384318586902	1028.441433568976	1424.217149313707	620.042282166134	1000.038458938790	1473.353375958743	444.257503615011	1047.640426197284	927.273549102898	603.257444600105	1033.095297519537	935.937719996805	327.418305996489	1045.102593576869	712.122998666813	579.938568823208	936.305096728051	618.798650292457	636.323852353976	998.714794090822	551.472944956421	558.830271954166	974.754320290449	460.404695435596	561.650607220856	1114.815981468219	762.450677812389	363.028710602313	1069.047681681353	631.219775329084	285.930662711386	1175.028831879950	577.771202519721	346.761875262389	1197.277124390346	507.729366987637	347.478510072659	1179.512421281453	432.303806417897	336.219539540899	1107.167134418328	305.917962139100	285.950158849823	1186.559986799735	203.468283207021	344.312043848718	925.032313399541	380.582885176348	567.931017668223	829.115929803792	297.602770192863	629.824525658083	845.264524400448	195.803233027300	566.592397373837	679.852809194997	47.941553985737	537.018522040023	853.457833639678	96.436860239651	574.405847602887	761.910956434264	39.184585381845	612.634043803863	970.702671480508	38.996590975257	606.262349454160	1088.725592997784	37.550757024764	385.397366877392	1159.810579265643	35.933128796561	302.020661690900	1239.880271795156	101.720368673133	323.934498895176	1369.253847323703	55.298685287863	292.084967210776	811.024968863345	1102.994466647157	211.387074682592	728.776450969530	857.936411470848	231.800619914102	1212.264656518862	1150.953651649422	735.183913079293	1365.402841595236	1307.632862235628	615.334629637549	
128	12.963071428571	823.766834414036	984.263748005798	485.016434974275	982.868206483355	1408.329945641779	287.219163597651	1097.884292913849	1342.265295558539	441.757827180413	1027.674202605020	1424.332395694406	617.131084096361	999.747840156606	1472.965482565013	440.841522752774	1048.552323591390	926.472171048591	600.905201954616	1034.741538431432	935.923650045301	325.276380560160	1046.729166491542	711.073310820529	577.555058325622	938.264304715093	617.370820873041	633.643020076009	1001.322077948759	549.926556758574	556.414036908286	977.329354568154	457.294478752886	559.880934580460	1117.095345972499	762.142226227873	361.458595835882	1070.578234701464	631.338447072812	284.471842078429	1175.566664436708	577.122940976059	346.090641318913	1196.606749131699	506.457422603687	347.431991542531	1178.365028979683	430.714406762116	336.103089887196	1104.926174990887	305.422504548377	284.441689351467	1181.230484295704	201.731646065758	344.666321268301	924.886949057696	378.828820025274	566.063255742022	826.838623007450	298.567523408448	628.223621346129	840.463065319793	196.108682220848	565.653523676121	671.739456924645	51.347845767195	537.107657730194	846.095916455068	96.793736259076	574.244921415760	753.775359531257	40.963288695649	612.615070339267	962.416395712998	38.620272322094	606.318118761031	1079.469740752560	37.419237109731	385.322611984843	1150.609309374599	35.243731862477	301.904084312458	1231.571532169363	99.867221067506	324.477306488729	1360.526253075714	51.897525197967	292.428481156627	812.727280776991	1100.663991796842	208.989614488674	731.120096251679	855.314297230797	229.000907674787	1207.611514323593	1148.367585250159	735.814123159900	1355.913197905923	1307.925160450508	613.416090680309	
